<?xml version="1.0" encoding="UTF-8"?>
<svg xmlns="http://www.w3.org/2000/svg" viewBox="0 0 44.52 45">
  <path d="m43.16,17.14c.82-.47,1.1-1.52.62-2.34l-3.78-6.55c-.47-.82-1.52-1.11-2.34-.63l-3.77,2.17c-1.72-1.63-3.76-2.91-6.03-3.74.01-.09.02-.18.02-.27v-3.56c0-.95-.77-1.72-1.72-1.72h-7.56c-.95,0-1.72.77-1.72,1.72v3.51c-2.33.69-4.45,1.86-6.26,3.38-.07-.06-.14-.11-.22-.16l-3.05-1.77c-.82-.47-1.87-.19-2.34.63l-3.78,6.56c-.48.82-.2,1.87.62,2.34l3.01,1.74c-.32,1.3-.48,2.65-.48,4.05,0,1.04.09,2.06.27,3.05-.09.03-.17.07-.25.11l-3.05,1.76c-.82.48-1.1,1.53-.62,2.35l3.78,6.55c.47.82,1.52,1.1,2.34.63l3.02-1.74c1.72,1.63,3.76,2.91,6.03,3.74-.01.09-.02.18-.02.27v3.56c0,.95.77,1.72,1.72,1.72h7.56c.95,0,1.72-.77,1.72-1.72v-3.51c2.33-.69,4.45-1.86,6.26-3.38.07.06.14.11.22.16l3.48,2.02c.82.47,1.87.19,2.34-.63l3.79-6.56c.47-.82.19-1.87-.63-2.34l-3.44-1.99c.32-1.3.48-2.65.48-4.05,0-1.04-.09-2.06-.27-3.05.09-.03.17-.07.25-.11l3.8-2.2Zm-8.09,12.51l-.36.62c-2.63,4.34-7.4,7.23-12.83,7.23s-10.2-2.89-12.83-7.23l-.36-.62c-1.15-2.13-1.81-4.56-1.81-7.15s.66-5.02,1.81-7.15l.36-.62c2.63-4.34,7.4-7.23,12.83-7.23s10.2,2.89,12.83,7.23l.36.62c1.15,2.13,1.81,4.56,1.81,7.15s-.66,5.02-1.81,7.15Z" style="stroke: #000; stroke-miterlimit: 10;"/>
</svg>